<svg width="72" height="72" viewBox="0 0 72 72" fill="none" xmlns="http://www.w3.org/2000/svg">
<circle cx="36" cy="36" r="35" fill="white" stroke="#D4D7DE" stroke-width="2"/>
<path fill-rule="evenodd" clip-rule="evenodd" d="M58.0654 46.7775C58.0654 46.0782 58.0263 45.4959 57.6769 45.146C57.4821 44.9518 57.2234 44.8482 56.8857 44.8482C56.5485 44.8482 56.3024 44.9518 56.1084 45.146C55.7581 45.4959 55.7191 46.0782 55.7191 46.7775C55.7191 47.4764 55.7581 48.0721 56.1084 48.4216C56.3024 48.6158 56.5485 48.7195 56.8857 48.7195C57.2234 48.7195 57.4821 48.6158 57.6769 48.4216C58.0263 48.0721 58.0654 47.4764 58.0654 46.7775V46.7775ZM59.7507 46.7775C59.7507 48.0075 59.5949 48.7711 58.9855 49.4054C58.5706 49.8459 57.8844 50.2339 56.8857 50.2339C55.8875 50.2339 55.2139 49.8459 54.7994 49.4054C54.19 48.7711 54.035 48.0075 54.035 46.7775C54.035 45.5605 54.19 44.7966 54.7994 44.1622C55.2139 43.7222 55.8875 43.3337 56.8857 43.3337C57.8844 43.3337 58.5706 43.7222 58.9855 44.1622C59.5949 44.7966 59.7507 45.5605 59.7507 46.7775V46.7775ZM51.43 46.1562C51.417 45.8584 51.3783 45.6771 51.275 45.4313C51.0928 45.0298 50.7173 44.732 50.1466 44.732C49.5771 44.732 49.2013 45.0298 49.0194 45.4313C48.9161 45.6771 48.8771 45.8584 48.8636 46.1562H51.43ZM53.0889 46.5573V47.3082H48.8636C48.8636 48.1758 49.3953 48.8101 50.3415 48.8101C51.0802 48.8101 51.4434 48.6028 51.8705 48.1758L52.8948 49.1725C52.2078 49.8589 51.5467 50.2339 50.3284 50.2339C48.7343 50.2339 47.2048 49.509 47.2048 46.7775C47.2048 44.5763 48.3971 43.3337 50.1466 43.3337C52.0263 43.3337 53.0889 44.7059 53.0889 46.5573V46.5573ZM44.289 46.7775C44.289 45.6771 44.1466 44.8482 43.1354 44.8482C42.1245 44.8482 41.9952 45.6771 41.9952 46.7775C41.9952 47.8779 42.1245 48.7195 43.1354 48.7195C44.1466 48.7195 44.289 47.8779 44.289 46.7775V46.7775ZM44.289 40.9387H45.9739V50.1563H44.328V49.522C43.8615 50.0401 43.3689 50.2339 42.6562 50.2339C41.9952 50.2339 41.3732 50.0011 40.9973 49.6256C40.3237 48.9527 40.3103 47.7873 40.3103 46.7775C40.3103 45.7677 40.3237 44.6153 40.9973 43.942C41.3732 43.5669 41.9825 43.3337 42.6427 43.3337C43.3298 43.3337 43.8489 43.5149 44.289 44.007V40.9387ZM38.1975 40.4596C37.6145 40.4596 37.1354 40.9257 37.1354 41.5084C37.1354 42.0907 37.6145 42.5698 38.1975 42.5698C38.7808 42.5698 39.2478 42.0907 39.2478 41.5084C39.2478 40.9257 38.7808 40.4596 38.1975 40.4596V40.4596ZM37.3554 50.1563H39.0407V43.4113H37.3554V50.1563ZM34.9058 43.4113H36.6818L34.2061 50.1563H32.8849L30.3962 43.4113H32.1714L33.5451 47.5801L34.9058 43.4113Z" fill="black"/>
<path fill-rule="evenodd" clip-rule="evenodd" d="M42.1343 29.7565L41.2613 29.9967C40.6532 30.2364 40.1089 30.6505 39.6501 31.2803V30.1263L37.495 30.106V39.1672H39.7375V34.8326C39.7375 34.091 39.8254 33.5693 40.0223 33.2414C40.1728 32.8943 40.4563 32.6107 40.8057 32.3714C41.1971 32.1089 41.6104 31.978 42.0472 31.978L42.7428 32.0231L42.7221 29.7122L42.1343 29.7565ZM24.5834 39.1663H26.8479V27.3611H24.5834V39.1663ZM33.5976 34.5498L33.1628 34.7871L32.0307 35.0708C31.5507 35.1362 31.1813 35.2451 30.9633 35.3755C30.5944 35.6153 30.4186 35.9436 30.4186 36.4003C30.4186 36.814 30.5293 37.096 30.7461 37.2935C30.9633 37.4658 31.2253 37.5535 31.5507 37.5535C32.0738 37.5535 32.531 37.4008 32.9671 37.096C33.38 36.7912 33.5976 36.2463 33.5976 35.4637V34.5498ZM35.9732 32.5006V39.1668H33.7062V38.2293C33.0094 38.8392 32.0307 39.1444 30.7904 39.1668C30.0265 39.1444 29.3956 38.9278 28.9379 38.5349C28.4169 38.0558 28.1561 37.4008 28.1773 36.5974C28.1561 35.4409 28.5682 34.636 29.4167 34.1349C29.9191 33.8505 30.5712 33.6558 31.3762 33.5457L33.1192 33.2641C33.4662 33.1121 33.6411 32.8704 33.6411 32.5668C33.6192 32.1966 33.5101 31.9345 33.2494 31.8041C32.9891 31.6509 32.6189 31.5627 32.1405 31.5859C31.5731 31.5627 31.1813 31.7167 30.9421 32.0231C30.7904 32.1966 30.6586 32.4587 30.6159 32.8505H28.3506C28.4169 32.0231 28.6129 31.3677 29.0038 30.8675C29.6136 30.0617 30.6806 29.6468 32.2052 29.6696C33.1847 29.6468 34.0548 29.8443 34.8387 30.258C35.5782 30.6501 35.9732 31.4116 35.9732 32.5006V32.5006ZM17.8337 29.6049C18.5309 29.6049 19.1622 29.8 19.772 30.1929C20.3167 30.5635 20.7523 31.0857 21.057 31.6952H23.4297C23.0815 30.4327 22.4063 29.3863 21.3828 28.5822C20.339 27.7532 19.1411 27.3396 17.8337 27.3611C16.2021 27.3396 14.8504 27.9056 13.7187 29.0812C12.5651 30.236 12 31.6074 12 33.2414C12 34.8525 12.5651 36.2703 13.7187 37.4239C14.8504 38.5552 16.2021 39.1229 17.8337 39.1229C19.1411 39.1229 20.339 38.7299 21.3828 37.9237C22.4063 37.096 23.0815 36.0732 23.4297 34.8099H21.057C20.7523 35.4202 20.3167 35.9192 19.772 36.3121C19.1622 36.684 18.5309 36.8794 17.8337 36.8794C16.833 36.8794 15.9845 36.5088 15.286 35.8103C14.5693 35.0927 14.2202 34.245 14.2414 33.2414C14.2202 32.2405 14.5693 31.39 15.286 30.6724C15.9845 29.9751 16.833 29.6049 17.8337 29.6049V29.6049ZM50.1466 34.4612C50.1238 33.7432 49.8847 33.154 49.4262 32.6753C48.9263 32.1755 48.3389 31.9345 47.6417 31.9569C46.9672 31.9345 46.379 32.1755 45.9007 32.6753C45.4211 33.154 45.1591 33.7432 45.1591 34.4612C45.1591 35.1362 45.4211 35.7246 45.9007 36.226C46.379 36.7282 46.9672 36.9652 47.6417 36.9652C48.3389 36.9652 48.9263 36.7282 49.4051 36.226C49.8847 35.7246 50.1238 35.1362 50.1466 34.4612V34.4612ZM50.9944 31.0857C51.9092 32.0231 52.3664 33.154 52.3664 34.4612C52.3664 35.768 51.9092 36.9001 50.9944 37.8152C50.0584 38.7527 48.9263 39.2305 47.6417 39.2305C46.3575 39.2305 45.2457 38.7527 44.3325 37.8152C43.3949 36.9001 42.9389 35.768 42.9389 34.4612C42.9389 33.154 43.3949 32.0231 44.3325 31.0857C45.2457 30.1499 46.3575 29.6907 47.6417 29.6907C48.9263 29.6907 50.0584 30.1499 50.9944 31.0857V31.0857ZM53.7617 34.3304H59.7507V32.3051H53.7617V34.3304ZM46.9021 27.8613H48.9271V22.0001H46.9021V27.8613ZM58.2265 24.5719L52.759 30.0393L51.3226 28.6013L56.7885 23.1355L58.2265 24.5719Z" fill="#E3262E"/>
</svg>
